<svg width="384" height="30" viewBox="0 0 384 30" fill="none" xmlns="http://www.w3.org/2000/svg">
<g clip-path="url(#clip0_97_1651)">
<path d="M310.749 1.51594C310.857 1.19372 310.964 0.764087 310.964 0.334458C312.47 0.441865 314.299 0.441865 315.805 0.549273C315.052 3.8789 314.299 7.10112 313.546 10.4308C312.147 10.3233 310.642 10.3233 309.243 10.3233C309.889 7.53076 309.566 3.12705 306.016 3.8789C304.726 4.09372 303.758 5.2752 303.973 6.88631C304.188 9.24927 306.554 10.2159 308.275 11.1826C309.458 11.8271 310.857 12.5789 311.717 13.4382C313.331 15.0493 314.299 17.5196 314.084 20.0974C313.868 23.4271 311.825 25.8974 309.458 27.0789C306.124 28.7974 301.499 28.3678 299.025 26.1122C298.917 26.5419 298.81 26.8641 298.81 27.4011C296.981 27.4011 295.26 27.2937 293.539 27.2937C294.4 23.7493 295.368 20.3122 296.228 16.7678C297.734 16.7678 299.347 16.8752 300.853 16.8752C300.746 19.99 301.284 23.8567 304.295 23.8567C306.232 23.9641 307.63 22.4604 307.307 20.4196C307.2 19.7752 306.662 18.9159 306.124 18.3789C304.618 16.8752 302.359 16.1233 300.746 14.6196C299.132 13.1159 297.949 10.9678 297.949 8.28261C297.949 5.49001 299.132 3.55668 300.531 2.26779C301.714 1.19372 303.112 0.334458 305.263 0.119643C307.737 -0.202579 309.243 0.549272 310.749 1.51594Z" fill="white"/>
<path d="M27.4277 8.81942C26.8899 11.3972 26.1369 14.4046 25.5991 17.3046C25.384 18.4861 24.8462 19.9898 25.1689 20.8491C25.384 21.7083 26.4596 22.3528 27.6428 22.2454C29.6865 22.1379 29.7941 19.775 30.2243 17.9491C30.7621 15.5861 31.1924 13.4379 31.7302 11.1824C31.9453 10.0009 32.4832 8.4972 32.1605 7.63794C31.9453 6.67128 30.6546 6.13424 29.9016 6.13424C27.9655 6.13424 27.6428 7.31572 27.4277 8.81942ZM29.1487 0.119426C33.989 -0.310204 38.2916 2.48239 37.9689 7.53054C37.8613 9.46387 37.4311 11.3972 37.1084 13.1157C36.7857 14.8342 36.3554 16.5528 35.9252 18.3787C35.0647 21.9231 34.0966 25.0379 31.6227 26.7565C29.7941 28.0454 27.105 28.2602 24.5235 27.6157C20.6512 26.6491 18.3924 23.8565 18.9302 18.7009C19.1453 16.7676 19.5756 15.4787 19.8983 13.7602C20.3285 12.0416 20.6512 10.5379 21.0815 9.03424C21.5117 7.42313 21.7269 5.81202 22.3722 4.41572C23.0176 3.23424 23.8781 2.37498 24.9537 1.62313C26.2445 0.871278 27.4277 0.226833 29.1487 0.119426Z" fill="white"/>
<path d="M89.706 0.226562H100.355C100.14 1.94508 99.8169 3.44879 99.6018 5.0599C98.5262 5.27471 97.4505 5.91916 97.0203 6.99323C96.59 7.9599 96.59 9.24879 96.3749 10.4303C95.8371 13.2229 95.2993 16.2303 94.6539 19.2377C94.5463 19.8821 94.3312 20.5266 94.4388 20.9562C94.5463 21.9229 95.4068 22.3525 96.3749 22.3525C96.1598 24.071 95.7295 25.6821 95.4068 27.2932H84.543C84.8657 25.5747 85.1883 23.9636 85.6186 22.3525C88.2001 22.2451 88.2001 19.9895 88.6304 17.5192C89.0606 15.1562 89.4909 12.7932 89.9211 10.5377C90.3514 8.60434 91.3194 5.38212 88.8455 5.0599C89.0606 3.44879 89.4909 1.94508 89.706 0.33397C89.5984 0.33397 89.706 0.33397 89.706 0.226562Z" fill="white"/>
<path d="M51.1994 11.1821C52.3826 10.7525 52.7053 8.38953 52.7053 6.99324C52.7053 6.88583 52.5978 6.4562 52.4902 6.4562C52.06 5.48953 49.8011 4.9525 49.1558 6.02657C48.7255 6.67101 48.7255 7.74509 48.6179 8.60435C48.4028 9.57101 48.2952 10.3229 48.1877 11.2895C49.2633 11.0747 50.3389 11.3969 51.1994 11.1821ZM41.3037 0.333977H52.2751C53.781 0.333977 55.6095 0.119162 56.5776 0.548792C58.2986 1.30064 59.5894 3.34138 59.6969 5.59694C59.9121 8.92657 57.9759 12.0414 55.9322 13.5451C56.9003 14.2969 57.7608 15.1562 57.6532 16.9821C57.5457 17.6266 57.4381 18.3784 57.223 19.1303C56.9003 20.634 56.47 22.4599 58.4062 22.1377C58.0835 23.8562 57.7608 25.5747 57.4381 27.4006C55.1793 27.0784 53.1356 27.8303 51.307 27.2932C50.3389 26.971 49.586 26.0043 49.4784 25.0377C49.2633 23.534 49.8011 21.9229 50.1238 20.3118C50.2314 19.5599 50.3389 18.8081 50.5541 18.0562C50.6616 17.1969 50.9843 16.1229 50.7692 15.4784C50.4465 14.2969 48.4028 14.1895 47.4347 14.7266C47.2196 15.5858 47.0045 16.6599 46.6818 17.8414C46.4667 18.9155 46.0364 20.2043 46.2516 21.171C46.3591 21.9229 47.3272 22.1377 48.4028 22.2451C48.0801 24.071 47.7574 25.6821 47.3272 27.5081H36.1406C36.4633 25.6821 36.786 23.9636 37.1087 22.2451C39.7978 22.4599 39.7978 19.9895 40.228 17.8414C40.6583 15.4784 41.0885 13.0081 41.5188 10.6451C41.7339 9.46361 42.1642 8.17472 42.1642 6.99324C42.0566 6.02657 41.1961 5.38213 40.3356 5.27472C40.5507 3.66361 40.981 2.1599 41.1961 0.548792C41.3037 0.441385 41.3037 0.333977 41.3037 0.333977Z" fill="white"/>
<path d="M75.6174 11.0755C76.0477 10.9681 76.3704 10.431 76.4779 10.1088C76.9082 9.14214 77.2309 7.31621 76.9082 6.45695C76.4779 5.38288 74.2191 5.06066 73.5737 6.02732C73.251 6.45695 73.251 7.74584 73.1435 8.6051C72.9283 9.57177 72.7132 10.431 72.7132 11.1829C73.8964 11.0755 74.8645 11.3977 75.6174 11.0755ZM65.7216 0.334731H73.0359C75.6174 0.334731 78.3065 0.119916 80.3502 0.334731C80.5653 0.334731 80.888 0.442138 81.1031 0.549546C82.9317 1.3014 84.1149 3.55695 84.2225 5.7051C84.4376 9.35695 82.5015 12.0421 80.4578 13.6533C81.4258 14.4051 82.2863 15.157 82.1788 16.9829C82.0712 17.6273 81.9636 18.4866 81.7485 19.2384C81.4258 20.957 80.9956 22.3533 82.9317 22.3533C82.609 24.0718 82.2863 25.7903 81.9636 27.6162H78.8443C77.7687 27.6162 76.3704 27.7236 75.725 27.5088C74.4342 27.0792 73.8964 25.6829 74.004 23.9644C74.1115 22.1384 74.7569 19.7755 75.1872 17.7347C75.2947 16.9829 75.5099 16.1236 75.2947 15.5866C74.972 14.5125 72.9283 14.4051 71.9603 14.9421C71.6376 16.231 71.2073 18.057 70.8846 19.6681C70.7771 20.3125 70.6695 20.957 70.7771 21.3866C70.9922 22.1384 71.9603 22.3533 72.9283 22.3533C72.6057 24.0718 72.1754 25.7903 71.8527 27.6162H60.5586C60.7737 25.7903 61.204 24.0718 61.5267 22.3533C64.1082 22.5681 64.1082 20.3125 64.5384 18.057C64.9687 15.694 65.5065 13.2236 65.8292 10.7533C66.2594 8.6051 67.3351 5.38288 64.7536 5.06066C65.0762 3.44955 65.3989 1.94584 65.7216 0.334731C65.7216 0.442138 65.7216 0.334731 65.7216 0.334731Z" fill="white"/>
<path d="M103.474 0.333984H121.975C121.329 3.55621 120.791 6.77843 120.146 9.89324H116.704C116.489 7.8525 116.489 6.02658 114.983 5.38213C113.477 4.73769 111.541 5.59695 110.896 6.99324C110.573 7.74509 110.465 8.71176 110.25 9.57102C110.035 10.5377 109.175 12.9007 110.896 12.9007C112.617 12.9007 112.186 10.1081 112.724 8.92658H114.875C114.23 12.471 113.585 16.0155 112.832 19.5599H110.573C110.68 18.3784 111.971 15.4784 110.035 15.5858C108.852 15.6932 108.852 17.1969 108.744 18.3784C108.637 19.1303 108.314 19.9895 108.314 20.7414C108.314 22.5673 110.143 23.8562 112.186 22.9969C114.015 22.2451 114.23 19.8821 115.091 17.734H118.748C118.102 20.9562 117.457 24.2858 116.812 27.4007H98.2031C98.5258 25.6821 98.9561 24.071 99.2788 22.4599C101.86 22.4599 101.86 19.6673 102.398 17.4118C102.828 15.1562 103.259 12.6858 103.689 10.4303C104.119 8.38954 104.98 5.38213 102.506 5.16732C102.828 3.66361 103.043 1.83769 103.474 0.333984Z" fill="white"/>
<path d="M134.668 11.0747C135.637 10.6451 136.605 7.20805 135.744 6.02657C135.206 5.27472 133.163 5.0599 132.625 5.91916C132.517 6.13398 132.41 6.67101 132.41 7.20805C132.195 8.60435 131.872 9.78583 131.657 11.1821C132.84 11.0747 133.916 11.3969 134.668 11.0747ZM124.665 0.333977H135.637C137.142 0.333977 138.971 0.119162 139.939 0.548792C141.768 1.30064 143.058 3.66361 143.058 6.13398C143.058 9.24879 141.768 11.3969 140.047 13.0081C139.939 13.1155 139.294 13.6525 139.294 13.6525C139.294 13.7599 139.832 14.0821 139.939 14.1895C141.122 15.371 141.015 16.7673 140.584 18.8081C140.262 20.4192 139.616 22.4599 141.66 22.2451C141.445 24.071 141.015 25.6821 140.692 27.5081C138.756 27.2932 136.497 27.9377 134.668 27.4006C133.485 27.1858 132.625 25.8969 132.625 24.608C132.517 22.5673 133.378 19.8821 133.808 17.8414C133.916 17.0895 134.131 16.1229 134.023 15.5858C133.808 14.834 132.84 14.5118 131.872 14.5118C130.581 14.6192 130.581 15.0488 130.258 16.3377C130.043 17.4118 129.828 18.4858 129.613 19.4525C129.505 19.9895 129.398 20.7414 129.505 21.2784C129.721 22.0303 130.474 22.2451 131.657 22.3525C131.334 24.071 130.904 25.7895 130.581 27.6155H119.395C119.825 25.8969 120.04 24.071 120.47 22.3525C122.837 22.5673 123.052 20.8488 123.374 18.7006C123.805 16.1229 124.342 13.6525 124.665 11.2895C124.88 10.0006 125.203 8.81916 125.31 7.63768C125.418 6.13398 124.665 5.38213 123.589 5.27472C124.127 3.66361 124.342 1.94509 124.665 0.333977Z" fill="white"/>
<path d="M148.329 0.333984H166.83C166.185 3.55621 165.539 6.67102 165.001 9.89324H161.559C161.667 6.99324 160.484 4.09324 157.364 5.59695C155.859 6.24139 155.643 7.95991 155.106 9.89324C154.891 10.8599 154.138 13.0081 155.859 13.0081C157.472 12.9007 157.042 10.2155 157.58 9.03398H159.623C158.978 12.6858 158.333 16.2303 157.58 19.6673H155.321C155.428 18.4858 156.719 15.6932 154.891 15.6932C153.815 15.6932 153.707 16.9821 153.6 17.9488C153.385 18.9155 153.062 20.0969 153.17 21.0636C153.277 23.7488 156.934 23.9636 158.225 22.2451C159.193 20.9562 159.408 19.3451 159.946 17.9488H163.603C162.958 21.2784 162.312 24.3932 161.667 27.6155H143.059C143.274 25.8969 143.704 24.2858 144.134 22.6747C146.716 22.6747 146.716 20.0969 147.146 17.8414C147.576 15.6932 148.006 13.2229 148.437 11.1821C148.652 10.0007 148.975 8.81917 149.082 7.74509C149.19 6.13398 148.437 5.59695 147.361 5.38213C147.684 3.87843 148.006 2.26732 148.329 0.656207C148.222 0.441392 148.222 0.333984 148.329 0.333984Z" fill="white"/>
<path d="M187.698 6.45646C186.73 11.7194 185.654 17.0898 184.901 22.3528C186.084 22.2453 188.021 22.5676 188.881 21.9231C189.634 21.3861 189.742 19.9898 190.064 18.7009C190.495 16.1231 191.032 13.8676 191.355 11.2898C191.57 10.2157 192.108 8.6046 191.785 7.42312C191.355 5.91942 189.634 6.13423 187.805 6.13423C187.698 6.34905 187.698 6.45646 187.698 6.45646ZM180.384 0.334234C184.471 0.549049 188.881 -0.0953958 192.216 0.549049C195.55 1.3009 198.347 3.77127 198.024 8.06757C197.916 9.57127 197.486 11.1824 197.271 12.5787C197.056 14.0824 196.733 15.4787 196.518 16.9824C195.98 19.8824 195.55 22.9972 193.937 24.9305C190.495 29.1194 182.32 26.8639 175.328 27.5083C175.651 25.7898 175.974 24.1787 176.404 22.675C178.878 22.4602 178.985 20.0972 179.523 17.6268C179.953 15.049 180.384 12.7935 180.814 10.2157C181.029 9.03423 181.459 7.42312 181.244 6.45646C181.029 5.7046 180.276 5.38238 179.523 5.16757C179.738 3.55646 180.168 2.05275 180.384 0.441641C180.168 0.441641 180.276 0.334234 180.384 0.334234Z" fill="white"/>
<path d="M201.466 0.333984H219.966C219.321 3.55621 218.676 6.67102 218.138 9.89324H214.696C214.803 6.88584 213.513 4.09324 210.393 5.59695C208.995 6.3488 208.672 7.95991 208.35 9.89324C208.135 10.8599 207.382 13.0081 209.103 13.0081C210.716 12.9007 210.286 10.2155 210.824 9.03398H212.867C212.222 12.6858 211.577 16.2303 210.824 19.6673H208.565C208.672 18.4858 209.963 15.6932 208.135 15.6932C207.059 15.6932 206.951 16.9821 206.844 17.9488C206.414 19.9895 205.876 22.3525 207.812 23.2118C208.887 23.6414 210.286 23.4266 211.039 22.7821C212.329 21.6007 212.437 19.6673 213.082 18.0562H216.74C216.094 21.3858 215.449 24.5007 214.803 27.7229H196.41C196.625 26.0044 197.163 24.5007 197.378 22.7821C199.96 22.7821 199.96 20.3118 200.498 17.9488C200.928 15.8007 201.358 13.3303 201.788 11.2895C202.003 10.1081 202.326 9.03398 202.434 7.8525C202.541 6.3488 201.788 5.59695 200.713 5.48954C201.035 3.98584 201.358 2.37473 201.681 0.763614C201.358 0.441392 201.358 0.333984 201.466 0.333984Z" fill="white"/>
<path d="M222.872 0.333984H233.521C233.198 1.9451 232.983 3.66361 232.66 5.16732C231.477 5.48954 230.402 6.13398 230.079 7.42287C229.756 8.38954 229.649 9.67843 229.433 10.8599C229.003 12.9007 228.573 15.371 228.143 17.5192C227.928 18.7006 227.497 19.9895 227.497 20.9562C227.605 22.6747 229.864 23.7488 231.477 22.9969C233.306 22.2451 233.413 19.6673 234.274 17.734H237.931C237.286 21.0636 236.64 24.1784 235.995 27.4007H217.602C217.817 25.6821 218.354 24.1784 218.57 22.5673C221.044 22.5673 221.259 19.8821 221.689 17.5192C222.119 15.371 222.549 12.6858 222.98 10.5377C223.195 9.03398 224.055 6.77843 223.087 5.70435C222.765 5.38213 222.119 5.27472 221.797 5.05991C222.012 3.4488 222.442 1.9451 222.657 0.333984C222.657 0.441392 222.765 0.333984 222.872 0.333984Z" fill="white"/>
<path d="M243.63 0.333984H254.171C253.848 1.9451 253.526 3.66361 253.311 5.27472C250.729 5.48954 250.514 8.28213 250.084 10.8599C249.653 12.9007 249.331 15.4784 248.901 17.734C248.685 18.9155 248.255 20.2044 248.255 21.171C248.363 22.8895 250.622 23.9636 252.235 23.2118C254.064 22.4599 254.171 19.8821 255.032 17.9488H258.689C258.043 21.2784 257.398 24.3932 256.753 27.6155H238.359C238.575 25.8969 239.112 24.3932 239.327 22.7821C241.909 22.6747 241.909 20.2044 242.447 17.8414C242.985 14.9414 243.63 11.934 244.168 9.03398C244.383 7.95991 244.598 6.67102 244.06 5.91917C243.738 5.48954 243.2 5.38213 242.769 5.27472C242.985 3.66361 243.415 2.15991 243.63 0.548799C243.415 0.441392 243.522 0.333984 243.63 0.333984Z" fill="white"/>
<path d="M319.571 0.333984H337.964C337.319 3.55621 336.781 6.77843 336.136 9.89324H332.694C332.479 7.7451 332.479 5.70436 330.758 5.27473C329.252 4.8451 327.638 5.59695 326.993 6.99324C326.67 7.7451 326.563 8.71176 326.348 9.57102C326.132 10.6451 325.379 12.9007 327.1 12.9007C328.714 12.7932 328.284 10.1081 328.822 8.92658H330.973C330.327 12.471 329.682 16.0155 328.929 19.5599H326.67C326.778 18.3784 327.961 15.5858 326.24 15.5858C325.272 15.5858 325.057 16.7673 324.949 17.8414C324.842 18.8081 324.411 19.8821 324.411 20.8488C324.411 22.6747 326.455 23.9636 328.391 23.1044C330.22 22.2451 330.327 19.9895 331.188 17.8414H334.845C334.2 21.0636 333.554 24.3932 332.909 27.5081H314.516C314.838 25.7895 315.161 24.1784 315.591 22.5673C318.065 22.5673 318.173 19.9895 318.711 17.6266C319.141 15.371 319.571 12.7932 320.001 10.6451C320.216 9.35621 320.969 7.31547 320.324 6.13398C320.109 5.59695 319.356 5.38213 318.818 5.16732C318.926 3.55621 319.248 1.83769 319.571 0.333984Z" fill="white"/>
<path d="M351.838 10.3236C352.268 9.46436 352.806 6.88658 352.053 6.02732C351.407 5.27547 349.364 5.16806 348.933 6.13473C348.826 6.45695 348.826 6.88658 348.718 7.42362C348.503 8.71251 348.18 10.0014 347.965 11.2903C349.901 11.2903 351.192 11.3977 351.838 10.3236ZM341.081 0.334731H352.053C353.236 0.334731 354.634 0.119916 355.71 0.334731C356.463 0.442138 357.216 0.979176 357.646 1.51621C358.614 2.48288 359.367 4.09399 359.475 5.49029C359.69 8.92732 358.291 11.2903 356.57 12.9014C356.355 13.1162 355.817 13.5458 355.817 13.6533C355.817 13.7607 356.785 14.5125 356.893 14.7273C357.108 15.157 357.538 15.9088 357.538 16.5533C357.538 17.3051 357.323 18.1644 357.108 18.9162C356.785 20.4199 356.14 22.5681 358.291 22.2458C357.969 24.0718 357.646 25.6829 357.323 27.5088H354.204C353.236 27.5088 352.053 27.7236 351.192 27.4014C350.224 27.1866 349.364 26.0051 349.256 24.931C349.149 23.4273 349.579 21.8162 349.901 20.2051C350.009 19.5607 350.117 18.7014 350.332 17.9495C350.439 17.1977 350.762 16.1236 350.547 15.5866C350.332 14.8347 349.364 14.5125 348.503 14.5125C348.073 14.5125 347.535 14.6199 347.212 14.8347C346.782 15.2644 346.675 17.1977 346.459 17.9495C346.029 20.2051 345.169 22.4607 348.073 22.2458C347.75 24.0718 347.428 25.7903 346.997 27.5088H335.703C336.026 25.6829 336.348 24.0718 336.671 22.2458C339.253 22.4607 339.253 20.5273 339.575 18.3792C340.221 15.157 340.759 12.0421 341.404 8.92732C341.727 7.20881 341.619 5.49029 339.898 5.27547C340.436 3.66436 340.651 1.83843 341.081 0.334731Z" fill="white"/>
<path d="M15.0588 0.441406H20.437C19.684 4.41548 18.8235 8.38955 18.0706 12.2562H12.6924C12.8 10.7525 13.5529 9.78585 13.4454 8.38955C13.2303 6.134 10.0034 5.70437 9.14286 7.6377C8.71261 8.38955 8.60504 9.78585 8.38992 11.0747C7.95967 13.1155 7.52941 15.4784 7.09916 17.5192C6.88403 18.7007 6.45378 20.097 6.66891 20.8488C6.88403 22.8896 10.1109 22.7821 10.8639 21.2784C11.1866 20.634 11.1866 19.8821 11.2941 19.2377C11.4017 18.5933 11.5092 17.9488 11.7244 17.197H17.2101C16.5647 22.2451 14.7361 26.434 10.2185 27.7229C5.37815 29.1192 0 25.897 0 21.0636C0 19.4525 0.537815 17.6266 0.860504 16.0155C1.18319 14.297 1.50588 12.6859 1.82857 11.0747C3.01177 5.70437 3.87227 0.441406 10.5412 0.441406C12.3698 0.441406 13.8756 1.19326 14.6286 2.26733C14.8437 1.62289 14.8437 0.978443 15.0588 0.441406Z" fill="white"/>
<path d="M269.768 16.4451C270.736 16.5525 272.134 16.5525 273.102 16.4451C272.672 14.4044 272.349 12.471 271.811 10.6451C271.166 12.5784 270.09 14.4044 269.768 16.4451ZM270.951 0.441406C272.564 0.441406 274.178 0.441406 275.684 0.548814C277.297 6.77844 278.588 13.7599 280.416 20.2044C280.847 21.9229 281.385 23.1044 283.751 22.7821C283.428 24.3933 283.213 26.1118 282.89 27.6155H271.058C271.274 25.897 271.596 24.2859 271.919 22.6747C272.887 22.5673 274.178 22.8896 274.501 22.2451C274.931 21.4933 273.963 20.5266 273.963 19.6673H268.585C268.369 20.4192 267.401 21.4933 267.832 22.3525C268.047 23.1044 269.445 22.5673 270.413 22.7821C270.198 24.5007 269.768 26.1118 269.445 27.7229H259.227C259.549 26.0044 259.872 24.3933 260.302 22.7821C263.422 22.7821 263.959 19.3451 264.82 16.9821C266.864 11.6118 269.122 5.59696 270.951 0.656221C270.843 0.548814 270.843 0.441406 270.951 0.441406Z" fill="white"/>
<path d="M370.017 16.4451C370.986 16.5525 372.384 16.5525 373.352 16.4451C372.922 14.4044 372.599 12.471 372.061 10.6451C371.416 12.5784 370.448 14.4044 370.017 16.4451ZM371.308 0.441406C372.922 0.441406 374.535 0.441406 376.041 0.548814C377.654 6.77844 378.945 13.7599 380.774 20.2044C381.204 21.9229 381.742 23.1044 384.108 22.7821C383.786 24.3933 383.57 26.1118 383.248 27.6155H371.416C371.631 25.897 371.954 24.2859 372.276 22.6747C373.244 22.5673 374.535 22.8896 374.858 22.2451C375.288 21.4933 374.32 20.5266 374.32 19.6673H368.942C368.727 20.4192 367.759 21.4933 368.189 22.3525C368.404 23.1044 369.802 22.5673 370.77 22.7821C370.555 24.5007 370.125 26.1118 369.802 27.7229H359.691C360.014 26.0044 360.337 24.3933 360.767 22.7821C363.886 22.7821 364.424 19.3451 365.285 16.9821C367.328 11.6118 369.587 5.59696 371.416 0.656221C371.201 0.548814 371.201 0.441406 371.308 0.441406Z" fill="white"/>
</g>
<defs>
<clipPath id="clip0_97_1651">
<rect width="384" height="29" fill="white" transform="translate(0 0.0126953)"/>
</clipPath>
</defs>
</svg>
