<svg width="338" height="338" viewBox="0 0 338 338" fill="none" xmlns="http://www.w3.org/2000/svg">
<path d="M185.504 17.1836L182.891 41.2337" stroke="#E18A34" stroke-width="5.83" stroke-miterlimit="10"/>
<path d="M155.105 296.952L152.493 320.997" stroke="#E18A34" stroke-width="5.83" stroke-miterlimit="10"/>
<path d="M145.629 18.085L149.33 41.9954" stroke="#E18A34" stroke-width="5.83" stroke-miterlimit="10"/>
<path d="M188.672 296.181L192.375 320.099" stroke="#E18A34" stroke-width="5.83" stroke-miterlimit="10"/>
<path d="M107.344 29.2783L117.104 51.4152" stroke="#E18A34" stroke-width="5.83" stroke-miterlimit="10"/>
<path d="M220.898 286.767L230.659 308.903" stroke="#E18A34" stroke-width="5.83" stroke-miterlimit="10"/>
<path d="M73.2578 50.002L88.416 68.8528" stroke="#E18A34" stroke-width="5.83" stroke-miterlimit="10"/>
<path d="M249.59 269.319L264.745 288.175" stroke="#E18A34" stroke-width="5.83" stroke-miterlimit="10"/>
<path d="M45.6953 78.835L65.2161 93.1296" stroke="#E18A34" stroke-width="5.83" stroke-miterlimit="10"/>
<path d="M272.785 245.042L292.308 259.342" stroke="#E18A34" stroke-width="5.83" stroke-miterlimit="10"/>
<path d="M26.5391 113.822L49.0883 122.574" stroke="#E18A34" stroke-width="5.83" stroke-miterlimit="10"/>
<path d="M288.91 215.601L311.468 224.345" stroke="#E18A34" stroke-width="5.83" stroke-miterlimit="10"/>
<path d="M17.0938 152.573L41.1381 155.194" stroke="#E18A34" stroke-width="5.83" stroke-miterlimit="10"/>
<path d="M296.862 182.98L320.911 185.586" stroke="#E18A34" stroke-width="5.83" stroke-miterlimit="10"/>
<path d="M17.9921 192.457L41.8939 188.76" stroke="#E18A34" stroke-width="5.83" stroke-miterlimit="10"/>
<path d="M296.101 149.41L319.998 145.705" stroke="#E18A34" stroke-width="5.83" stroke-miterlimit="10"/>
<path d="M29.1843 230.75L51.315 220.976" stroke="#E18A34" stroke-width="5.83" stroke-miterlimit="10"/>
<path d="M286.682 117.181L308.806 107.419" stroke="#E18A34" stroke-width="5.83" stroke-miterlimit="10"/>
<path d="M49.9058 264.833L68.7547 249.671" stroke="#E18A34" stroke-width="5.83" stroke-miterlimit="10"/>
<path d="M269.238 88.4921L288.076 73.3325" stroke="#E18A34" stroke-width="5.83" stroke-miterlimit="10"/>
<path d="M78.7444 292.398L93.0317 272.874" stroke="#E18A34" stroke-width="5.83" stroke-miterlimit="10"/>
<path d="M244.96 65.2925L259.239 45.7754" stroke="#E18A34" stroke-width="5.83" stroke-miterlimit="10"/>
<path d="M113.732 311.554L122.478 288.988" stroke="#E18A34" stroke-width="5.83" stroke-miterlimit="10"/>
<path d="M215.512 49.1664L224.25 26.6207" stroke="#E18A34" stroke-width="5.83" stroke-miterlimit="10"/>
<path d="M285.317 181.73C278.336 245.972 220.6 292.391 156.358 285.41C92.1161 278.43 45.6969 220.694 52.6773 156.452C59.6577 92.2097 117.394 45.7905 181.636 52.7709C245.878 59.7514 292.297 117.488 285.317 181.73Z" fill="#E18A34"/>
</svg>
