<svg width="42" height="43" viewBox="0 0 42 43" fill="none" xmlns="http://www.w3.org/2000/svg">
<circle cx="20.8258" cy="21.5133" r="20.7086" fill="#C9BBB5"/>
<g clip-path="url(#clip0_97_1486)">
<path d="M31.594 14.6658C30.7697 15.0336 29.9418 15.3112 29.0243 15.405C29.9418 14.8497 30.6765 13.9266 31.0421 12.9098C30.1246 13.4651 29.2071 13.8329 28.2 14.0204C27.2825 13.0973 26.0891 12.542 24.806 12.542C22.3259 12.542 20.3081 14.572 20.3081 17.0636C20.3081 17.435 20.3081 17.8028 20.4013 18.0805C16.6382 17.8966 13.3374 16.1406 11.1332 13.3713C10.6745 14.0204 10.4917 14.8497 10.4917 15.679C10.4917 17.2511 11.316 18.6357 12.5095 19.4651C11.7748 19.3713 11.0436 19.1874 10.4917 18.9098C10.4917 18.9098 10.4917 18.9098 10.4917 19.0035C10.4917 21.2175 12.0507 23.0636 14.0685 23.435C13.7029 23.5252 13.3374 23.6189 12.8786 23.6189C12.6027 23.6189 12.3267 23.6189 12.0507 23.5252C12.6027 25.3713 14.2549 26.6658 16.2726 26.6658C14.7136 27.8665 12.7854 28.6021 10.6745 28.6021C10.3089 28.6021 9.93978 28.6021 9.57422 28.5119C11.592 29.8028 13.9789 30.542 16.4554 30.542C24.806 30.542 29.3003 23.6189 29.3003 17.6189C29.3003 17.435 29.3003 17.2511 29.3003 17.0636C30.2178 16.4182 30.9525 15.5889 31.594 14.6658Z" fill="#F3FEFE"/>
</g>
<defs>
<clipPath id="clip0_97_1486">
<rect width="23" height="18" fill="white" transform="translate(9.32422 12.542)"/>
</clipPath>
</defs>
</svg>
